
<svg role="img" viewBox="0 0 24 24" xmlns="http://www.w3.org/2000/svg">
  <title>Spotify</title>
  <path d="M12 0C5.371 0 0 5.371 0 12c0 6.627 5.371 12 12 12s12-5.373 12-12c0-6.629-5.371-12-12-12zm5.297 17.453a.749.749 0 0 1-1.03.271c-2.824-1.729-6.385-2.119-10.583-1.155a.75.75 0 1 1-.326-1.463c4.563-1.02 8.463-.584 11.563 1.3a.75.75 0 0 1 .376.947zm1.47-3.13a.937.937 0 0 1-1.287.338c-3.233-1.98-8.168-2.557-11.99-1.393a.938.938 0 1 1-.547-1.797c4.25-1.294 9.617-.662 13.267 1.557a.938.938 0 0 1 .557 1.295zm.13-3.234c-3.88-2.297-10.293-2.507-13.98-1.367a1.125 1.125 0 1 1-.652-2.154c4.168-1.264 11.17-1.025 15.527 1.557a1.125 1.125 0 1 1-1.125 1.964z"/>
</svg>